<svg xmlns="http://www.w3.org/2000/svg" width="960" height="640" viewBox="0 0 960 640" role="img" aria-label="Private Pool placeholder">
  <defs>
    <linearGradient id="bg" x1="0" y1="0" x2="1" y2="1">
      <stop offset="0" stop-color="#2c856b"/>
      <stop offset="1" stop-color="#226b57"/>
    </linearGradient>
    <linearGradient id="sheen" x1="0" y1="0" x2="0" y2="1">
      <stop offset="0" stop-color="#ffffff" stop-opacity="0.10"/>
      <stop offset="1" stop-color="#ffffff" stop-opacity="0"/>
    </linearGradient>
  </defs>
  <rect width="960" height="640" fill="url(#bg)"/>
  <circle cx="820" cy="90" r="220" fill="#ffffff" opacity="0.05"/>
  <circle cx="120" cy="580" r="260" fill="#ffffff" opacity="0.05"/>
  <rect width="960" height="320" fill="url(#sheen)"/>
  <g transform="translate(330,140) scale(3)" fill="none" stroke="#ffffff" stroke-opacity="0.9" stroke-width="3.5" stroke-linecap="round" stroke-linejoin="round">
    <path d="M20 62 Q28 56 36 62 T52 62 T68 62 T84 62 M20 72 Q28 66 36 72 T52 72 T68 72 T84 72 M36 62 V30 A6 6 0 0 1 48 30 M36 40 H48 M36 50 H48"/>
  </g>
  <text x="480" y="500" text-anchor="middle" font-family="Georgia, 'Times New Roman', serif" font-size="44" fill="#ffffff" opacity="0.95">Private Pool</text>
  <text x="480" y="548" text-anchor="middle" font-family="Verdana, Arial, sans-serif" font-size="19" letter-spacing="6" fill="#ffffff" opacity="0.65">BOOKMYSTAY</text>
</svg>
